<?xml version="1.0" standalone="no"?>
<!DOCTYPE svg PUBLIC "-//W3C//DTD SVG 20010904//EN"
 "http://www.w3.org/TR/2001/REC-SVG-20010904/DTD/svg10.dtd">
<svg version="1.0" xmlns="http://www.w3.org/2000/svg"
 width="2167.000000pt" height="2167.000000pt" viewBox="0 0 2167.000000 2167.000000"
 preserveAspectRatio="xMidYMid meet">
<metadata>
Created by potrace 1.11, written by Peter Selinger 2001-2013
</metadata>
<g transform="translate(0.000000,2167.000000) scale(0.100000,-0.100000)"
fill="#000000" stroke="none">
<path d="M10918 18362 c-8 -9 -100 -100 -205 -202 -105 -102 -313 -304 -463
-450 -150 -146 -309 -301 -355 -345 -45 -44 -214 -209 -376 -366 -162 -158
-333 -324 -380 -370 -48 -46 -207 -202 -355 -345 -148 -144 -312 -304 -365
-355 -161 -157 -635 -618 -739 -719 -211 -206 -650 -632 -737 -716 -50 -49
-214 -208 -363 -354 -150 -146 -312 -303 -360 -350 -48 -47 -211 -205 -362
-351 -340 -332 -450 -439 -453 -439 -3 0 -797 790 -2585 2570 -1411 1405
-2513 2501 -2749 2735 l-71 69 0 -5319 0 -5320 10832 0 10833 0 3 5319 2 5319
-22 -19 c-30 -27 -109 -103 -378 -364 -129 -126 -273 -266 -320 -310 -47 -45
-199 -193 -338 -328 -140 -135 -282 -273 -317 -307 -56 -53 -443 -428 -625
-605 -109 -106 -559 -542 -640 -620 -41 -40 -178 -172 -304 -294 -125 -121
-263 -255 -306 -296 -43 -41 -184 -178 -315 -305 -131 -126 -272 -263 -314
-304 -42 -40 -191 -185 -331 -321 -140 -136 -286 -278 -325 -314 -38 -37 -171
-166 -295 -286 -124 -120 -265 -257 -315 -305 -49 -47 -134 -129 -187 -182
l-98 -96 -372 371 c-205 204 -490 486 -633 627 -143 141 -627 621 -1075 1065
-448 444 -934 926 -1080 1070 -751 744 -1937 1919 -2035 2017 -103 103 -113
111 -127 95z"/>
<path d="M7087 6394 c-1 -2 -49 -6 -107 -10 -57 -3 -111 -8 -120 -9 -8 -2 -22
-4 -31 -4 -18 -1 -18 75 -5 -911 6 -400 6 -776 1 -880 -2 -41 -6 -150 -10
-243 l-6 -167 163 2 163 3 -1 40 c-1 22 -5 135 -9 250 -10 255 -10 545 -1
1060 4 215 9 498 11 631 l3 240 -24 0 c-14 0 -26 -1 -27 -2z"/>
<path d="M7726 6313 c-2 -3 -10 -5 -18 -7 -68 -10 -128 -102 -122 -187 7 -112
76 -174 185 -166 100 8 155 61 164 157 8 95 -25 166 -89 190 -31 11 -113 20
-120 13z"/>
<path d="M14804 6311 c-108 -26 -163 -132 -128 -249 23 -78 93 -119 186 -109
89 10 141 63 154 159 13 93 -39 181 -115 194 -20 3 -43 7 -51 9 -8 1 -29 -1
-46 -4z"/>
<path d="M5445 6191 c-10 -24 -100 -276 -160 -446 -53 -150 -264 -742 -355
-995 -27 -74 -55 -155 -64 -180 -8 -25 -44 -125 -79 -223 l-64 -177 166 2 166
3 17 80 c9 44 19 96 22 116 3 20 19 71 35 115 16 43 38 104 48 134 l20 55 84
5 c73 4 413 5 655 1 l80 -1 47 -147 c38 -122 87 -321 87 -355 0 -4 77 -8 170
-8 94 0 170 2 170 4 0 4 -29 93 -230 716 -61 190 -127 393 -145 452 -19 59
-45 140 -58 180 -14 40 -57 174 -97 298 -39 124 -84 261 -99 305 l-26 80 -192
1 c-168 1 -193 -1 -198 -15z m222 -386 c71 -227 136 -437 173 -555 23 -74 53
-170 67 -214 17 -53 22 -80 15 -85 -9 -5 -574 -8 -619 -2 -10 1 -10 8 -2 29
13 32 107 296 119 332 5 14 31 90 60 170 28 80 70 197 92 260 45 130 57 156
67 144 4 -5 16 -40 28 -79z"/>
<path d="M12036 6201 c-4 -6 -1 -279 9 -811 6 -368 6 -734 0 -865 -3 -55 -7
-157 -9 -227 l-5 -128 168 0 168 0 -3 108 c-1 59 -5 214 -8 344 l-7 237 158 0
c181 -1 233 4 341 32 276 70 465 283 509 572 12 76 6 250 -11 319 -40 171
-138 294 -289 363 -122 56 -182 62 -625 62 -216 0 -394 -3 -396 -6z m772 -279
c149 -58 215 -167 214 -353 -1 -236 -107 -392 -302 -444 -42 -11 -327 -12
-355 -1 -8 3 -10 64 -8 197 5 301 11 603 12 611 1 10 66 13 236 12 126 -1 159
-5 203 -22z"/>
<path d="M10495 5650 c-361 -53 -579 -338 -578 -755 0 -303 104 -527 305 -656
55 -35 168 -77 236 -87 60 -9 255 -8 307 1 116 20 282 82 289 107 3 8 8 38 11
65 4 28 9 59 10 70 17 111 17 115 0 121 -9 4 -43 -6 -78 -24 -114 -56 -137
-65 -242 -86 -63 -13 -174 -14 -235 -2 -98 19 -193 92 -240 185 -37 74 -65
201 -61 276 1 20 8 20 436 20 l435 0 27 28 c28 27 28 29 30 165 2 152 -13 232
-64 331 -57 111 -197 215 -318 236 -61 11 -214 14 -270 5z m173 -225 c74 -14
132 -61 165 -134 21 -48 35 -175 19 -184 -5 -4 -112 -9 -238 -13 -126 -3 -258
-7 -294 -8 -91 -3 -91 -3 -73 57 62 211 223 319 421 282z"/>
<path d="M9020 5627 c-97 -42 -234 -125 -288 -177 -40 -38 -49 -22 -47 89 l2
101 -41 -4 c-23 -3 -72 -7 -111 -11 -93 -8 -149 -16 -154 -21 -4 -3 -3 -54 4
-389 6 -293 6 -523 0 -710 -4 -99 -8 -215 -9 -257 l-3 -78 164 0 164 0 -6 133
c-3 72 -8 303 -10 512 l-4 380 27 24 c185 162 366 210 490 128 19 -13 44 -45
60 -77 26 -53 27 -59 25 -215 -1 -128 -10 -552 -17 -835 l-1 -45 163 -3 c126
-2 162 0 163 10 1 23 -3 280 -7 383 -4 108 -4 272 -1 570 2 159 -1 199 -16
245 -36 110 -128 202 -237 236 -73 24 -73 24 -170 29 -74 5 -92 2 -140 -18z"/>
<path d="M16040 5598 c-92 -47 -198 -116 -238 -155 -32 -31 -38 -15 -36 91 l2
105 -42 -4 c-22 -2 -72 -6 -111 -10 -109 -9 -149 -16 -156 -26 -3 -5 -4 -24
-3 -41 2 -28 16 -644 16 -733 1 -28 -12 -473 -16 -597 l-2 -58 163 0 164 0 -6
133 c-3 72 -8 303 -10 512 l-4 379 37 33 c77 69 196 138 260 149 143 26 231
-8 285 -111 24 -46 26 -113 13 -625 -5 -157 -9 -325 -9 -375 l-2 -90 163 -3
162 -2 1 27 c1 30 -1 129 -7 338 -4 151 -4 361 0 595 4 232 -15 302 -106 394
-53 53 -87 73 -163 97 -58 19 -61 19 -160 25 l-90 5 -105 -53z"/>
<path d="M7867 5634 c-1 -1 -46 -5 -101 -9 -120 -8 -157 -13 -164 -20 -3 -3
-4 -53 -3 -112 12 -553 13 -771 5 -1018 -4 -93 -7 -199 -8 -235 l-1 -65 162
-3 163 -2 -5 142 c-3 79 -8 197 -10 263 -6 156 -6 345 0 470 2 55 7 203 10
328 3 125 6 231 6 235 4 23 -4 32 -27 30 -14 -2 -26 -3 -27 -4z"/>
<path d="M13877 5634 c-1 -1 -41 -5 -88 -9 -47 -3 -95 -8 -105 -10 -11 -2 -27
-4 -37 -4 -18 -1 -18 -16 -12 -323 9 -427 10 -566 1 -788 -4 -102 -8 -216 -9
-255 l-2 -70 163 -3 164 -3 -7 148 c-12 283 -15 389 -15 544 -1 142 1 161 20
195 122 216 243 293 413 262 31 -6 53 -6 60 1 9 6 12 55 12 157 l0 148 -25 6
c-44 12 -130 2 -193 -21 -72 -27 -173 -117 -227 -202 -19 -31 -39 -55 -45 -53
-6 2 -10 57 -9 144 l1 142 -29 -2 c-16 -1 -30 -3 -31 -4z"/>
<path d="M14947 5634 c-1 -1 -47 -5 -102 -9 -120 -9 -156 -13 -163 -19 -5 -5
-4 -61 3 -401 5 -233 5 -560 -1 -715 -2 -74 -6 -177 -8 -227 l-3 -93 163 0
163 0 -5 153 c-2 83 -6 202 -9 262 -5 141 -6 332 0 465 2 58 7 204 10 324 3
121 6 222 7 225 3 31 -4 41 -28 39 -14 -2 -26 -3 -27 -4z"/>
<path d="M17015 5625 c-2 -5 -6 -42 -10 -82 -3 -39 -8 -84 -11 -98 -8 -45 11
-57 82 -50 34 3 73 8 86 11 36 9 578 11 578 2 0 -4 -21 -36 -47 -71 -27 -35
-104 -141 -173 -236 -69 -94 -169 -231 -223 -304 -53 -72 -104 -141 -111 -152
-8 -11 -55 -75 -105 -142 -49 -67 -93 -130 -98 -140 -8 -15 -10 -82 -4 -173
l1 -25 550 1 c302 0 552 2 554 5 5 6 19 133 20 189 l1 45 -50 -1 c-27 0 -88
-4 -135 -9 -111 -10 -581 -12 -586 -3 -3 4 26 49 64 100 37 51 79 109 92 128
14 19 30 42 37 50 14 17 388 525 493 671 l70 96 -1 97 c0 53 -4 96 -7 97 -4 0
-245 1 -536 2 -354 2 -529 -1 -531 -8z"/>
</g>
</svg>
