<?xml version="1.0" standalone="no"?>
<!DOCTYPE svg PUBLIC "-//W3C//DTD SVG 20010904//EN"
 "http://www.w3.org/TR/2001/REC-SVG-20010904/DTD/svg10.dtd">
<svg version="1.0" xmlns="http://www.w3.org/2000/svg"
 width="2167.000000pt" height="2167.000000pt" viewBox="0 0 2167.000000 2167.000000"
 preserveAspectRatio="xMidYMid meet">
<metadata>
Created by potrace 1.11, written by Peter Selinger 2001-2013
</metadata>
<g transform="translate(0.000000,2167.000000) scale(0.100000,-0.100000)"
fill="#000000" stroke="none">
<path d="M2 12705 l3 -5320 10829 0 c7210 0 10830 3 10832 10 2 6 3 2399 2
5318 l-3 5309 -91 -89 c-51 -48 -195 -188 -320 -309 -126 -122 -268 -259 -315
-305 -120 -116 -332 -321 -620 -601 -134 -130 -282 -273 -329 -318 -47 -45
-191 -184 -320 -310 -129 -125 -269 -261 -312 -301 -42 -41 -186 -180 -320
-310 -133 -130 -274 -267 -313 -304 -78 -74 -505 -488 -625 -605 -86 -83 -504
-489 -639 -619 -47 -45 -192 -186 -321 -311 -129 -125 -267 -259 -307 -296
-64 -62 -510 -494 -570 -552 l-24 -24 -362 361 c-199 198 -486 482 -637 631
-151 150 -637 631 -1080 1070 -443 439 -920 911 -1060 1050 -281 278 -1840
1823 -2036 2018 -67 67 -126 122 -129 122 -4 0 -12 -6 -19 -12 -7 -7 -139
-135 -292 -284 -154 -150 -324 -316 -379 -369 -55 -53 -225 -219 -379 -368
-153 -150 -307 -299 -340 -332 -34 -33 -199 -193 -365 -355 -167 -162 -338
-329 -381 -370 -86 -84 -554 -539 -809 -787 -92 -89 -211 -205 -266 -259 -55
-53 -226 -219 -380 -369 -154 -150 -319 -311 -367 -356 -47 -46 -216 -211
-375 -365 -158 -155 -327 -319 -375 -365 -79 -77 -517 -503 -716 -696 -46 -46
-85 -83 -87 -83 -3 0 -529 523 -2577 2561 -1525 1519 -2600 2588 -2757 2744
l-71 69 2 -5319z"/>
<path d="M6798 6455 c-2 -2 -105 -11 -170 -15 -4 0 -4 -219 -1 -487 10 -890 5
-1475 -13 -1505 -3 -4 63 -8 147 -8 l151 0 -7 218 c-9 278 -9 538 0 1097 4
248 8 506 9 575 l1 125 -57 1 c-31 1 -58 1 -60 -1z"/>
<path d="M7414 6371 c-58 -26 -88 -78 -87 -151 0 -31 8 -70 16 -87 53 -101
233 -99 283 4 37 77 17 189 -41 227 -39 26 -122 29 -171 7z"/>
<path d="M13860 6368 c-56 -29 -84 -80 -83 -153 0 -98 57 -155 154 -155 105 0
169 69 164 177 -5 95 -51 143 -145 150 -33 2 -58 -3 -90 -19z"/>
<path d="M11488 6292 c-130 -3 -120 4 -120 -77 0 -22 3 -238 7 -480 11 -663 8
-1112 -9 -1268 l-3 -27 154 0 154 0 -6 253 c-6 247 -7 312 -6 352 1 19 8 20
139 21 199 0 272 11 399 57 167 62 318 237 359 418 16 71 19 104 18 209 -1
180 -43 294 -145 398 -44 44 -160 108 -213 118 -16 3 -33 7 -36 9 -25 15 -389
24 -692 17z m532 -246 c172 -35 254 -157 245 -366 -7 -172 -75 -286 -209 -349
-60 -28 -140 -37 -289 -33 l-107 3 4 247 c3 136 5 304 5 374 l1 127 53 3 c87
5 260 2 297 -6z"/>
<path d="M5362 6238 c-11 -29 -92 -258 -181 -508 -89 -250 -171 -477 -181
-505 -10 -27 -33 -90 -51 -140 -85 -242 -211 -594 -224 -627 -7 -17 4 -18 143
-18 135 0 151 2 156 18 4 16 11 48 21 102 3 14 7 39 11 55 7 38 91 275 99 284
4 3 171 6 372 6 l366 0 32 -97 c18 -54 30 -98 28 -98 -2 0 2 -10 8 -22 10 -18
36 -132 53 -228 2 -12 30 -15 160 -18 87 -1 155 1 153 5 -3 5 -37 109 -77 233
-39 124 -82 257 -95 295 -28 84 -149 458 -150 465 0 3 -10 34 -22 70 -22 65
-195 602 -231 715 l-19 60 -176 3 -175 2 -20 -52z m273 -498 c42 -135 94 -303
116 -375 23 -71 47 -148 54 -170 12 -38 12 -40 -8 -46 -29 -7 -544 -6 -551 2
-3 3 12 57 35 120 22 63 56 159 75 214 20 55 44 123 53 150 33 92 82 230 98
275 30 86 34 93 43 84 5 -5 43 -119 85 -254z"/>
<path d="M10068 5795 c-2 -1 -34 -5 -73 -9 -299 -27 -513 -255 -543 -576 -25
-275 35 -486 178 -631 62 -61 158 -120 222 -135 128 -31 255 -38 366 -20 98
16 261 77 263 99 0 7 2 20 4 29 3 18 10 61 21 145 9 69 -4 73 -92 30 -92 -45
-117 -54 -195 -70 -66 -14 -164 -15 -227 -3 -88 17 -176 86 -220 173 -23 43
-52 173 -52 228 l0 35 393 0 394 0 27 24 c27 22 28 27 31 133 5 182 -33 309
-122 404 -71 76 -159 120 -270 134 -66 9 -102 12 -105 10z m113 -230 c50 -26
88 -75 105 -133 16 -53 21 -123 10 -140 -3 -5 -69 -9 -148 -11 -79 -1 -205 -4
-280 -6 l-137 -4 16 52 c41 138 119 223 233 253 56 15 161 9 201 -11z"/>
<path d="M8637 5765 c-98 -40 -221 -115 -279 -171 -9 -9 -21 -14 -25 -11 -5 3
-8 47 -6 96 3 93 1 97 -38 93 -41 -5 -209 -20 -229 -21 -12 -1 -14 -15 -12
-78 5 -143 5 -1027 0 -1130 l-6 -103 149 0 149 0 -6 143 c-3 78 -7 288 -8 465
l-3 324 61 51 c200 166 430 159 476 -15 11 -39 12 -199 5 -478 -2 -74 -6 -215
-9 -312 l-4 -178 149 0 150 0 -6 268 c-4 147 -6 321 -5 387 7 385 6 412 -32
492 -24 52 -88 118 -140 144 -103 53 -249 68 -331 34z"/>
<path d="M15056 5755 c-89 -39 -165 -84 -229 -138 -26 -22 -51 -36 -55 -33 -4
4 -7 49 -7 99 0 64 -3 91 -12 90 -6 -1 -49 -5 -95 -9 -45 -4 -94 -8 -108 -9
-14 -2 -34 -3 -45 -4 -18 -1 -20 -7 -17 -43 6 -77 5 -1111 -1 -1190 l-5 -78
149 0 149 0 -6 158 c-3 86 -7 296 -8 465 l-3 309 61 51 c98 81 221 129 307
120 80 -8 131 -44 161 -113 23 -54 24 -114 4 -832 l-4 -158 150 0 150 0 -7
258 c-7 238 -7 334 -1 642 3 149 -13 219 -65 296 -44 65 -154 127 -249 140
-107 15 -139 12 -214 -21z"/>
<path d="M7619 5776 c-2 -2 -47 -7 -99 -11 -52 -4 -104 -9 -115 -10 -11 -1
-31 -3 -45 -4 -25 -1 -25 -1 -22 -88 6 -159 6 -996 0 -1110 l-5 -113 149 0
148 0 -7 158 c-9 202 -8 642 1 945 4 130 6 237 4 237 -3 0 -7 -2 -9 -4z"/>
<path d="M13089 5776 c-2 -2 -42 -7 -89 -12 -47 -4 -98 -8 -115 -10 -16 -1
-37 -3 -45 -3 -11 -1 -15 -12 -13 -48 3 -90 15 -638 15 -698 0 -58 -10 -375
-17 -502 l-2 -63 148 0 148 0 -7 198 c-3 108 -6 285 -7 392 l0 196 43 66 c57
87 116 145 177 174 45 21 61 23 143 19 l92 -5 0 145 0 145 -63 0 c-84 0 -153
-22 -213 -67 -57 -44 -71 -59 -125 -135 -22 -32 -43 -58 -47 -58 -5 0 -7 58
-5 129 3 111 -2 152 -18 137z"/>
<path d="M14070 5776 c-3 -2 -48 -7 -100 -11 -52 -4 -104 -9 -115 -10 -11 -1
-32 -3 -46 -4 -23 -1 -25 -4 -22 -38 6 -63 7 -1061 1 -1170 l-6 -103 148 0
148 0 -6 198 c-11 305 -2 1076 12 1101 5 8 -9 43 -14 37z"/>
<path d="M15905 5770 c-2 -3 -6 -36 -9 -75 -4 -38 -9 -82 -12 -96 -7 -37 16
-52 68 -44 63 10 608 19 608 10 0 -7 -23 -40 -200 -280 -37 -49 -135 -184
-220 -300 -206 -283 -211 -290 -246 -336 -28 -38 -30 -44 -28 -120 2 -45 5
-83 7 -86 3 -2 230 -5 505 -6 439 -2 500 0 500 13 0 14 7 79 17 147 9 59 1 65
-78 58 -39 -4 -80 -9 -91 -11 -17 -4 -462 -7 -528 -5 -14 1 -9 13 26 59 24 31
81 109 128 172 46 63 162 222 258 353 96 131 196 268 222 304 l48 66 -2 85
c-1 50 -6 85 -12 88 -17 6 -957 10 -961 4z"/>
</g>
</svg>
